<?xml version="1.0" encoding="utf-8"?>
<!-- Generator: Adobe Illustrator 19.1.0, SVG Export Plug-In . SVG Version: 6.00 Build 0)  -->
<svg version="1.1" baseProfile="tiny" id="Layer_1" xmlns="http://www.w3.org/2000/svg" xmlns:xlink="http://www.w3.org/1999/xlink"
	 x="0px" y="0px" viewBox="0 0 294 117.1" xml:space="preserve">
<path fill-rule="evenodd" fill="#FFFFFF" d="M26.4,48.6c0.6,3.8,2.3,5.7,5.6,5.7c3,0,5.2-0.8,6.9-1.7v-3.8c0,0-0.7,0-1.1,0
	c-3.4,0-3.9-1.1-3.9-3.2V25.8c0-8-5.4-11.6-14.6-11.6c-9.6,0-14.8,3.8-14.8,9.7c0,1.9,0.2,2.7,0.6,4.3l7.6-0.5
	c-0.3-1.1-0.6-1.8-0.6-3.2c0-2.3,1.1-4.8,6.8-4.8c5.2,0,7.4,2.5,7.4,7.4c-0.6,1.9-5.5,3.4-12.6,5.2C7.9,33.6,3,36.9,3,43.1
	C3,50,6.5,54.7,14.6,54.7C19.4,54.7,23.9,53,26.4,48.6 M26.2,33.2l-0.3,7.3c-0.1,5-3.6,8.1-7.4,8.4c-5.1,0.5-7.3-2.1-7.3-5.5
	c0-3.8,2.6-5.9,8.8-7.3C22.4,35.6,25.4,34.4,26.2,33.2z M50.6,40.4v13.5h-7.7V2.4h7.7v29.8l12.2-16.8h8.8L60.4,29.8l15.4,24.1
	c0,0-8.8,0-8.8,0L55.2,35L50.6,40.4z M86.5,53.9L73.8,15.4h8.3l9.2,30l10.2-30h7.6l-11.5,34c-0.9,2.7-2.6,4.5-5.4,4.5H86.5z
	 M142.8,35.2c0-13.6-5.4-21-16.3-21c-10.7,0-16.3,6.7-16.3,21c0,13.9,5.6,19.4,16.3,19.4C136.7,54.7,142.8,49.3,142.8,35.2z
	 M118.5,35c0-10.7,2.5-14.6,8-14.6c5.4,0,8,4,8,14.6c0,9.5-2.3,13.2-8,13.2C120.8,48.2,118.5,44.7,118.5,35z"/>
<path fill="#FFD300" d="M19.3,104.6C8.6,104.6,3,99.1,3,85.2c0-14.4,5.6-21.1,16.3-21.1c10.9,0,16.3,7.4,16.3,21.1
	C35.6,99.3,29.5,104.6,19.3,104.6 M19.3,98.1c5.7,0,8.1-3.7,8.1-13.2c0-10.7-2.6-14.6-8.1-14.6c-5.6,0-8.1,4-8.1,14.6
	C11.3,94.6,13.6,98.1,19.3,98.1z M49.3,114.8h-8V65.3h7.9v7.3c1.7-5.3,5.8-8.1,10.8-8.1c7,0,14.1,4,14.1,19.9
	c0,14.8-6.2,19.9-14.7,19.9c-5.4,0-8.5-3-10.1-5.9V114.8 M65.9,84.6c0-10.2-3.6-13.6-8.4-13.6c-4.2,0-8.2,4.2-8.2,13.5
	c0,10.9,3.6,13.6,8.3,13.6C61.6,98.1,65.9,96.3,65.9,84.6z M95.9,98.5c5.6,0,7-2.8,7.2-6.4c0.1-0.6,0.1-1.5,0.1-1.5l7.4,0.7
	c0.1,0.7,0.1,1.3,0.1,2.5c-0.5,6.4-5,10.9-14.8,10.9c-10.9,0-16.2-4.2-16.2-19.5c0-14.8,6.3-21,16-21c8.5,0,13.8,5,14.5,15.2
	c0.2,2.7,0.1,5-0.1,6.9H87.7C87.7,94.4,90.4,98.5,95.9,98.5 M102.6,77.5c-0.7-4.6-3.2-7-7-7c-4.9,0-7.6,3.1-7.9,10.7h15
	C102.8,80.3,102.8,78.7,102.6,77.5z M117.2,103.8h8.1V82.5c0-7.3,4.7-11.3,8.3-11.3c4.4,0,6.6,1.7,6.6,7.9v24.8h8.1V74.2
	c0-6.6-3.7-9.7-10.5-9.7c-6.6,0-10.9,3.6-12.6,9.3v-8.6h-8V103.8 M184.7,88c0.3,1.3,0.5,2.9,0.5,5c0,5.8-4.6,11.7-14.6,11.7
	c-11.1,0-16-5-16-18.7c0-16.3,6.4-21.9,16.6-21.9c9.6,0,13.4,5.4,13.4,12.2c0,1.3,0,2.3-0.2,3.2l-7.6,0.3c0.1-0.7,0.2-1.3,0.2-2.3
	c0-5.1-2.7-7.3-6.2-7.3c-5.6,0-7.9,3.6-7.9,13.4c0,11.7,1.9,14.5,7.8,14.5c4.8,0,7-2,7-8c0-0.9-0.1-1.9-0.2-2.6L184.7,88z M214,98.6
	c-2.4,4.4-7,6-11.8,6c-8.1,0-11.5-4.7-11.5-11.6c0-6.2,4.8-9.5,10.6-10.9c7.1-1.7,12-3.2,12.6-5.2c0-4.8-2.2-7.4-7.4-7.4
	c-5.8,0-6.8,2.5-6.8,4.8c0,1.3,0.3,2,0.6,3.2l-7.6,0.5c-0.4-1.5-0.6-2.4-0.6-4.3c0-5.8,5.2-9.7,14.8-9.7c9.3,0,14.6,3.6,14.6,11.6
	v19.9c0,2.1,0.5,3.2,3.9,3.2c0.3,0,1.1,0,1.1,0v3.8c-1.7,0.9-3.9,1.7-6.9,1.7C216.4,104.3,214.6,102.4,214,98.6z M213.9,83.1
	c-0.8,1.3-3.8,2.4-6.2,3c-6.2,1.4-8.9,3.5-8.9,7.3c0,3.4,2.2,6,7.3,5.5c3.8-0.3,7.2-3.4,7.4-8.5L213.9,83.1z M231.6,90l7.2,0.5
	c-0.2,0.9-0.4,1.7-0.4,2.6c0,3.2,2.1,5.7,7.2,5.7c4.8,0,7.2-1.9,7.2-5.3c0-2-0.7-4.1-7.5-6.2l-5.4-1.7c-5.5-1.7-8.9-4.1-8.9-10.1
	c0-6.9,5.7-11.3,13.9-11.3c9.5,0,14.6,4.3,14.6,9.5c0,1.2-0.3,2-0.5,2.8l-7.8,0.5c0.2-0.7,0.5-1.6,0.5-2.5c0-2.3-2.1-4.4-6.6-4.4
	c-4.3,0-6.2,2.6-6.2,4.6c0,2.2,1.3,3.3,6.1,4.8l5.7,1.7c6.7,2.1,10.4,5.7,10.4,11.3c0,7.3-5,12.2-15.6,12.2c-9.7,0-15-4.4-15-9.9
	C230.6,93.1,231.1,91.3,231.6,90z M271.4,70.6h-7.2v-5.3h7.2V54.7h8.1v10.6h9.6v5.3h-9.6v23.3c0,3.2,1.7,4.2,5.3,4.2
	c2.6,0,4.9-0.9,6.8-1.7v5.6c-1.5,0.8-5.7,2.3-10.5,2.3c-6.2,0-9.7-2.6-9.7-10.5V70.6z"/>
</svg>
